<mxfile host="app.diagrams.net" modified="2023-11-29T19:10:13.316Z" agent="Mozilla/5.0 (Windows NT 10.0; Win64; x64) AppleWebKit/537.36 (KHTML, like Gecko) Chrome/119.0.0.0 Safari/537.36" etag="O-dV3ng0XMAHC7AqcHdJ" version="22.1.5" type="github">
  <diagram name="Page-1" id="ceqhEECQQT_VFP3f1HSW">
    <mxGraphModel dx="794" dy="1564" grid="1" gridSize="10" guides="1" tooltips="1" connect="1" arrows="1" fold="1" page="1" pageScale="1" pageWidth="850" pageHeight="1100" math="0" shadow="0">
      <root>
        <mxCell id="0" />
        <mxCell id="1" parent="0" />
        <mxCell id="t4PWqt115GtPnCfkdyew-1" value="קלוט מערך&amp;nbsp; בגודל 100&lt;br&gt;הדפס את ממצוע המספרים הזוגיים,&lt;br&gt;" style="whiteSpace=wrap;html=1;aspect=fixed;" vertex="1" parent="1">
          <mxGeometry x="50" y="30" width="210" height="210" as="geometry" />
        </mxCell>
        <mxCell id="t4PWqt115GtPnCfkdyew-3" style="edgeStyle=orthogonalEdgeStyle;rounded=0;orthogonalLoop=1;jettySize=auto;html=1;" edge="1" parent="1" source="t4PWqt115GtPnCfkdyew-2">
          <mxGeometry relative="1" as="geometry">
            <mxPoint x="545" y="150" as="targetPoint" />
          </mxGeometry>
        </mxCell>
        <mxCell id="t4PWqt115GtPnCfkdyew-2" value="start" style="rounded=1;whiteSpace=wrap;html=1;" vertex="1" parent="1">
          <mxGeometry x="490" y="-80" width="130" height="60" as="geometry" />
        </mxCell>
        <mxCell id="t4PWqt115GtPnCfkdyew-5" style="edgeStyle=orthogonalEdgeStyle;rounded=0;orthogonalLoop=1;jettySize=auto;html=1;" edge="1" parent="1" source="t4PWqt115GtPnCfkdyew-4" target="t4PWqt115GtPnCfkdyew-6">
          <mxGeometry relative="1" as="geometry">
            <mxPoint x="540" y="260" as="targetPoint" />
          </mxGeometry>
        </mxCell>
        <mxCell id="t4PWqt115GtPnCfkdyew-4" value="arr[100]" style="shape=card;whiteSpace=wrap;html=1;" vertex="1" parent="1">
          <mxGeometry x="470" y="150" width="140" height="80" as="geometry" />
        </mxCell>
        <mxCell id="t4PWqt115GtPnCfkdyew-15" style="edgeStyle=orthogonalEdgeStyle;rounded=0;orthogonalLoop=1;jettySize=auto;html=1;" edge="1" parent="1" source="t4PWqt115GtPnCfkdyew-6">
          <mxGeometry relative="1" as="geometry">
            <mxPoint x="540" y="420" as="targetPoint" />
          </mxGeometry>
        </mxCell>
        <mxCell id="t4PWqt115GtPnCfkdyew-25" style="edgeStyle=orthogonalEdgeStyle;rounded=0;orthogonalLoop=1;jettySize=auto;html=1;" edge="1" parent="1" source="t4PWqt115GtPnCfkdyew-6" target="t4PWqt115GtPnCfkdyew-26">
          <mxGeometry relative="1" as="geometry">
            <mxPoint x="340" y="390" as="targetPoint" />
          </mxGeometry>
        </mxCell>
        <mxCell id="t4PWqt115GtPnCfkdyew-6" value="" style="shape=sumEllipse;perimeter=ellipsePerimeter;whiteSpace=wrap;html=1;backgroundOutline=1;" vertex="1" parent="1">
          <mxGeometry x="485" y="260" width="110" height="110" as="geometry" />
        </mxCell>
        <mxCell id="t4PWqt115GtPnCfkdyew-7" value="i=0" style="text;html=1;strokeColor=none;fillColor=none;align=center;verticalAlign=middle;whiteSpace=wrap;rounded=0;" vertex="1" parent="1">
          <mxGeometry x="510" y="270" width="60" height="30" as="geometry" />
        </mxCell>
        <mxCell id="t4PWqt115GtPnCfkdyew-8" value="i++" style="text;html=1;strokeColor=none;fillColor=none;align=center;verticalAlign=middle;whiteSpace=wrap;rounded=0;" vertex="1" parent="1">
          <mxGeometry x="480" y="300" width="60" height="30" as="geometry" />
        </mxCell>
        <mxCell id="t4PWqt115GtPnCfkdyew-10" style="edgeStyle=orthogonalEdgeStyle;rounded=0;orthogonalLoop=1;jettySize=auto;html=1;exitX=1;exitY=0.5;exitDx=0;exitDy=0;" edge="1" parent="1" source="t4PWqt115GtPnCfkdyew-9">
          <mxGeometry relative="1" as="geometry">
            <mxPoint x="610" y="315" as="targetPoint" />
          </mxGeometry>
        </mxCell>
        <mxCell id="t4PWqt115GtPnCfkdyew-9" value="i&amp;lt;arr[100]" style="text;html=1;strokeColor=none;fillColor=none;align=center;verticalAlign=middle;whiteSpace=wrap;rounded=0;" vertex="1" parent="1">
          <mxGeometry x="540" y="300" width="60" height="30" as="geometry" />
        </mxCell>
        <mxCell id="t4PWqt115GtPnCfkdyew-17" style="edgeStyle=orthogonalEdgeStyle;rounded=0;orthogonalLoop=1;jettySize=auto;html=1;" edge="1" parent="1" source="t4PWqt115GtPnCfkdyew-16">
          <mxGeometry relative="1" as="geometry">
            <mxPoint x="720" y="560" as="targetPoint" />
          </mxGeometry>
        </mxCell>
        <mxCell id="t4PWqt115GtPnCfkdyew-18" value="true" style="edgeLabel;html=1;align=center;verticalAlign=middle;resizable=0;points=[];" vertex="1" connectable="0" parent="t4PWqt115GtPnCfkdyew-17">
          <mxGeometry x="-0.3526" y="-4" relative="1" as="geometry">
            <mxPoint as="offset" />
          </mxGeometry>
        </mxCell>
        <mxCell id="t4PWqt115GtPnCfkdyew-16" value="arr[i]%2==0" style="rhombus;whiteSpace=wrap;html=1;" vertex="1" parent="1">
          <mxGeometry x="470" y="420" width="130" height="130" as="geometry" />
        </mxCell>
        <mxCell id="t4PWqt115GtPnCfkdyew-20" value="sum=sum+arr[i]&lt;br&gt;counter=counter+1" style="rounded=0;whiteSpace=wrap;html=1;" vertex="1" parent="1">
          <mxGeometry x="660" y="560" width="120" height="60" as="geometry" />
        </mxCell>
        <mxCell id="t4PWqt115GtPnCfkdyew-21" value="sum=0&lt;br&gt;counter=0" style="rounded=0;whiteSpace=wrap;html=1;" vertex="1" parent="1">
          <mxGeometry x="485" y="40" width="120" height="60" as="geometry" />
        </mxCell>
        <mxCell id="t4PWqt115GtPnCfkdyew-27" style="edgeStyle=orthogonalEdgeStyle;rounded=0;orthogonalLoop=1;jettySize=auto;html=1;" edge="1" parent="1" source="t4PWqt115GtPnCfkdyew-26" target="t4PWqt115GtPnCfkdyew-28">
          <mxGeometry relative="1" as="geometry">
            <mxPoint x="340" y="490" as="targetPoint" />
          </mxGeometry>
        </mxCell>
        <mxCell id="t4PWqt115GtPnCfkdyew-26" value="avg=sum/counter" style="rounded=0;whiteSpace=wrap;html=1;" vertex="1" parent="1">
          <mxGeometry x="280" y="360" width="120" height="60" as="geometry" />
        </mxCell>
        <mxCell id="t4PWqt115GtPnCfkdyew-29" style="edgeStyle=orthogonalEdgeStyle;rounded=0;orthogonalLoop=1;jettySize=auto;html=1;" edge="1" parent="1" source="t4PWqt115GtPnCfkdyew-28" target="t4PWqt115GtPnCfkdyew-30">
          <mxGeometry relative="1" as="geometry">
            <mxPoint x="340" y="630" as="targetPoint" />
          </mxGeometry>
        </mxCell>
        <mxCell id="t4PWqt115GtPnCfkdyew-28" value="evg" style="shape=document;whiteSpace=wrap;html=1;boundedLbl=1;" vertex="1" parent="1">
          <mxGeometry x="280" y="510" width="120" height="70" as="geometry" />
        </mxCell>
        <mxCell id="t4PWqt115GtPnCfkdyew-30" value="" style="rounded=1;whiteSpace=wrap;html=1;" vertex="1" parent="1">
          <mxGeometry x="280" y="650" width="120" height="60" as="geometry" />
        </mxCell>
      </root>
    </mxGraphModel>
  </diagram>
</mxfile>
